<?xml version="1.0" encoding="utf-8"?>
<!-- Generator: Adobe Illustrator 24.0.1, SVG Export Plug-In . SVG Version: 6.00 Build 0)  -->
<svg version="1.1" xmlns="http://www.w3.org/2000/svg" xmlns:xlink="http://www.w3.org/1999/xlink" x="0px" y="0px"
	 viewBox="0 0 155.91 155.91" style="enable-background:new 0 0 155.91 155.91;" xml:space="preserve">
<style type="text/css">
	.st0{display:none;}
	.st1{display:inline;}
	.st2{fill:#510619;}
	.st3{fill:#EAA83D;}
	.st4{display:inline;fill:none;}
	.st5{display:inline;fill:#EAA83D;}
	.st6{display:inline;fill:#FFFFFF;}
</style>
<g id="Layer_1" class="st0">
	<g class="st1">
		
			<ellipse transform="matrix(0.7071 -0.7071 0.7071 0.7071 -32.2891 77.9528)" class="st2" cx="77.95" cy="77.95" rx="74.41" ry="74.41"/>
		<path class="st3" d="M77.95,6.04c39.65,0,71.91,32.26,71.91,71.91s-32.26,71.91-71.91,71.91S6.04,117.6,6.04,77.95
			S38.3,6.04,77.95,6.04 M77.95,1.04c-42.48,0-76.91,34.43-76.91,76.91s34.43,76.91,76.91,76.91s76.91-34.43,76.91-76.91
			S120.43,1.04,77.95,1.04L77.95,1.04z"/>
	</g>
	<g class="st1">
		<path class="st3" d="M135.36,51.49c-0.88-0.08-1.72,0.16-2.55,0.4c-2.62,0.76-5.17,1.71-7.69,2.74
			c-5.51,2.27-10.77,5.09-16.15,7.64c-1.74,0.82-3.42,1.77-5.19,2.51c-4.22,1.76-7.61,4.53-10.4,8.11
			c-2.56,3.28-5.72,5.77-9.58,7.47c-4.95,2.19-9.77,4.65-14.65,7c-0.6,0.29-1.18,0.72-1.72-0.1c-0.13-0.2-0.4-0.11-0.63-0.11
			c-0.89-0.02-1.62,0.38-2.27,0.91c-0.35,0.29-0.74,0.4-1.13,0.57c-1.06,0.47-2.18,0.77-3.23,1.23c-0.49,0.21-0.96,0.5-1.48,0.65
			c-3.6,1.04-7.27,1.82-10.82,3.04c-3.06,1.05-6.16,2.03-9.04,3.5c-3.92,1.99-7.32,4.68-10.06,8.15c-1.47,1.86-3.04,3.63-5,5
			c-0.6,0.42-0.66,0.77-0.15,1.36c0.63,0.71,1.38,0.6,2.12,0.49c2.03-0.28,4.05-0.6,6.11-0.67c1.21-0.04,2.45-0.05,3.63-0.28
			c5.22-1.04,9.92-3.24,14.38-6.14c5.52-3.59,10.09-8.47,15.96-11.57c0.18-0.09,0.32-0.16,0.43-0.18c0.27-0.06,0.54-0.14,0.78-0.29
			c0.37-0.23,0.77-0.43,1.15-0.64c0.04-0.02,0.08-0.04,0.12-0.06c0.49-0.27,0.83-0.73,1.01-1.25c0.15-0.44,0.49-0.82,0.99-1.05
			c4.19-2,8.4-3.96,12.58-5.99c3.39-1.64,6.99-2.97,9.66-5.79c1.52-1.6,3.01-3.23,4.41-4.94c1.91-2.33,4.29-4,6.98-5.29
			c6.5-3.11,13-6.22,19.49-9.35c1.85-0.89,3.78-1.34,5.84-1.35c1.29,0,2.56,0.13,3.84,0.18c1.59,0.07,2.33-0.41,2.8-1.89
			c0.27-0.85,0.47-1.73,0.61-2.61C136.65,52,136.26,51.58,135.36,51.49z"/>
	</g>
	<path id="SVGID_x5F_1_x5F_" class="st4" d="M13.66,98.11l115.4-55.08"/>
	<text class="st1">	<textPath  xlink:href="#SVGID_x5F_1_x5F_" startOffset="0.098%">
<tspan  class="st3" style="font-family:'Calibri-BoldItalic'; font-size:35.691px;">Nimbus</tspan>	</textPath>
</text>
	<path id="SVGID_x5F_2_x5F_" class="st4" d="M65.41,131.17l85.13-42.06"/>
	<text class="st1">	<textPath  xlink:href="#SVGID_x5F_2_x5F_" startOffset="25.098%">
<tspan  class="st3" style="font-family:'Calibri-BoldItalic'; font-size:35.691px;">2020</tspan>	</textPath>
</text>
</g>
<g id="Layer_2" class="st0">
	<path class="st5" d="M135.36,51.49c-0.88-0.08-1.72,0.16-2.55,0.4c-2.62,0.76-5.17,1.71-7.69,2.74
		c-5.51,2.27-10.77,5.09-16.15,7.64c-1.74,0.82-3.42,1.77-5.19,2.51c-4.22,1.76-7.61,4.53-10.4,8.11c-2.56,3.28-5.72,5.77-9.58,7.47
		c-4.95,2.19-9.77,4.65-14.65,7c-0.6,0.29-1.18,0.72-1.72-0.1c-0.13-0.2-0.4-0.11-0.63-0.11c-0.89-0.02-1.62,0.38-2.27,0.91
		c-0.35,0.29-0.74,0.4-1.13,0.57c-1.06,0.47-2.18,0.77-3.23,1.23c-0.49,0.21-0.96,0.5-1.48,0.65c-3.6,1.04-7.27,1.82-10.82,3.04
		c-3.06,1.05-6.16,2.03-9.04,3.5c-3.92,1.99-7.32,4.68-10.06,8.15c-1.47,1.86-3.04,3.63-5,5c-0.6,0.42-0.66,0.77-0.15,1.36
		c0.63,0.71,1.38,0.6,2.12,0.49c2.03-0.28,4.05-0.6,6.11-0.67c1.21-0.04,2.45-0.05,3.63-0.28c5.22-1.04,9.92-3.24,14.38-6.14
		c5.52-3.59,10.09-8.47,15.96-11.57c0.18-0.09,0.32-0.16,0.43-0.18c0.27-0.06,0.54-0.14,0.78-0.29c0.37-0.23,0.77-0.43,1.15-0.64
		c0.04-0.02,0.08-0.04,0.12-0.06c0.49-0.27,0.83-0.73,1.01-1.25c0.15-0.44,0.49-0.82,0.99-1.05c4.19-2,8.4-3.96,12.58-5.99
		c3.39-1.64,6.99-2.97,9.66-5.79c1.52-1.6,3.01-3.23,4.41-4.94c1.91-2.33,4.29-4,6.98-5.29c6.5-3.11,13-6.22,19.49-9.35
		c1.85-0.89,3.78-1.34,5.84-1.35c1.29,0,2.56,0.13,3.84,0.18c1.59,0.07,2.33-0.41,2.8-1.89c0.27-0.85,0.47-1.73,0.61-2.61
		C136.65,52,136.26,51.58,135.36,51.49z"/>
	<path id="SVGID_x5F_3_x5F_" class="st4" d="M13.66,98.11l115.4-55.08"/>
	<text class="st1">	<textPath  xlink:href="#SVGID_x5F_3_x5F_" startOffset="0.098%">
<tspan  class="st3" style="font-family:'Calibri-BoldItalic'; font-size:35.691px;">Nimbus</tspan>	</textPath>
</text>
	<path id="SVGID_x5F_4_x5F_" class="st4" d="M65.41,131.17l85.13-42.06"/>
	<text class="st1">	<textPath  xlink:href="#SVGID_x5F_4_x5F_" startOffset="25.098%">
<tspan  class="st3" style="font-family:'Calibri-BoldItalic'; font-size:35.691px;">2020</tspan>	</textPath>
</text>
</g>
<g id="Layer_3">
	<g>
		<path class="st2" d="M135.36,51.49c-0.88-0.08-1.72,0.16-2.55,0.4c-2.62,0.76-5.17,1.71-7.69,2.74
			c-5.51,2.27-10.77,5.09-16.15,7.64c-1.74,0.82-3.42,1.77-5.19,2.51c-4.22,1.76-7.61,4.53-10.4,8.11
			c-2.56,3.28-5.72,5.77-9.58,7.47c-4.95,2.19-9.77,4.65-14.65,7c-0.6,0.29-1.18,0.72-1.72-0.1c-0.13-0.2-0.4-0.11-0.63-0.11
			c-0.89-0.02-1.62,0.38-2.27,0.91c-0.35,0.29-0.74,0.4-1.13,0.57c-1.06,0.47-2.18,0.77-3.23,1.23c-0.49,0.21-0.96,0.5-1.48,0.65
			c-3.6,1.04-7.27,1.82-10.82,3.04c-3.06,1.05-6.16,2.03-9.04,3.5c-3.92,1.99-7.32,4.68-10.06,8.15c-1.47,1.86-3.04,3.63-5,5
			c-0.6,0.42-0.66,0.77-0.15,1.36c0.63,0.71,1.38,0.6,2.12,0.49c2.03-0.28,4.05-0.6,6.11-0.67c1.21-0.04,2.45-0.05,3.63-0.28
			c5.22-1.04,9.92-3.24,14.38-6.14c5.52-3.59,10.09-8.47,15.96-11.57c0.18-0.09,0.32-0.16,0.43-0.18c0.27-0.06,0.54-0.14,0.78-0.29
			c0.37-0.23,0.77-0.43,1.15-0.64c0.04-0.02,0.08-0.04,0.12-0.06c0.49-0.27,0.83-0.73,1.01-1.25c0.15-0.44,0.49-0.82,0.99-1.05
			c4.19-2,8.4-3.96,12.58-5.99c3.39-1.64,6.99-2.97,9.66-5.79c1.52-1.6,3.01-3.23,4.41-4.94c1.91-2.33,4.29-4,6.98-5.29
			c6.5-3.11,13-6.22,19.49-9.35c1.85-0.89,3.78-1.34,5.84-1.35c1.29,0,2.56,0.13,3.84,0.18c1.59,0.07,2.33-0.41,2.8-1.89
			c0.27-0.85,0.47-1.73,0.61-2.61C136.65,52,136.26,51.58,135.36,51.49z"/>
	</g>
	<g>
		<path class="st2" d="M35,86.15c0.07,0.26,0.09,0.52,0.05,0.77c-0.04,0.25-0.11,0.48-0.22,0.68c-0.11,0.21-0.25,0.39-0.42,0.54
			c-0.17,0.15-0.37,0.28-0.59,0.39L32,89.4c-0.39,0.19-0.73,0.3-1.02,0.35c-0.29,0.05-0.56,0.02-0.83-0.08
			c-0.27-0.1-0.55-0.28-0.85-0.54c-0.3-0.26-0.64-0.6-1.03-1.03l-7.46-7.6c-0.57-0.59-1.13-1.19-1.67-1.81
			c-0.54-0.62-1.07-1.23-1.59-1.85l-0.03,0.02c0.29,0.88,0.55,1.76,0.79,2.62c0.24,0.87,0.47,1.75,0.68,2.64l2.81,11.42
			c0.03,0.12,0.02,0.23-0.02,0.36c-0.04,0.12-0.13,0.25-0.27,0.38c-0.14,0.13-0.33,0.27-0.57,0.43c-0.24,0.15-0.55,0.32-0.93,0.5
			s-0.7,0.32-0.96,0.4c-0.26,0.09-0.47,0.13-0.62,0.14c-0.16,0.01-0.27-0.02-0.35-0.08c-0.08-0.07-0.13-0.16-0.14-0.28l-4.93-20.12
			c-0.14-0.54-0.09-1.02,0.14-1.43c0.23-0.41,0.56-0.72,1-0.93l2.24-1.07c0.36-0.17,0.69-0.28,0.98-0.32
			c0.29-0.04,0.57-0.02,0.83,0.07s0.53,0.23,0.79,0.44c0.27,0.21,0.55,0.48,0.86,0.82l7.53,7.67c0.49,0.49,0.95,0.98,1.4,1.48
			c0.44,0.5,0.9,0.99,1.36,1.48l0.03-0.02c-0.24-0.81-0.48-1.65-0.71-2.53s-0.46-1.72-0.67-2.55l-2.57-10.55
			c-0.03-0.11-0.02-0.23,0.02-0.35c0.04-0.11,0.13-0.23,0.26-0.36c0.14-0.12,0.32-0.26,0.56-0.4c0.24-0.15,0.55-0.31,0.93-0.49
			c0.38-0.18,0.7-0.32,0.97-0.41c0.26-0.09,0.47-0.15,0.62-0.16c0.15-0.02,0.27,0.01,0.35,0.06c0.08,0.06,0.14,0.15,0.16,0.26
			L35,86.15z"/>
		<path class="st2" d="M44,83.03c0.03,0.12,0.02,0.23-0.04,0.34c-0.05,0.12-0.16,0.24-0.31,0.37s-0.37,0.28-0.65,0.43
			c-0.27,0.16-0.61,0.33-1.01,0.52c-0.41,0.2-0.76,0.35-1.04,0.46c-0.28,0.11-0.5,0.17-0.66,0.19c-0.16,0.02-0.29,0-0.36-0.05
			c-0.08-0.05-0.13-0.14-0.16-0.25l-4.25-17.3c-0.02-0.1-0.01-0.21,0.04-0.32c0.05-0.11,0.15-0.23,0.3-0.36
			c0.15-0.13,0.36-0.27,0.62-0.43c0.26-0.16,0.6-0.33,1.01-0.53c0.4-0.19,0.74-0.34,1.02-0.44c0.28-0.1,0.51-0.17,0.69-0.19
			c0.18-0.03,0.31-0.02,0.4,0.02c0.09,0.04,0.15,0.11,0.18,0.21L44,83.03z"/>
		<path class="st2" d="M70.29,70.49c0.04,0.11,0.04,0.22,0,0.33c-0.04,0.11-0.12,0.22-0.26,0.35c-0.14,0.13-0.34,0.26-0.6,0.41
			c-0.26,0.15-0.59,0.32-1.01,0.52c-0.41,0.2-0.75,0.35-1.01,0.44c-0.26,0.1-0.47,0.16-0.64,0.18c-0.16,0.02-0.28,0-0.36-0.05
			c-0.07-0.05-0.13-0.14-0.17-0.25L62.8,58.28l-0.03,0.02l-1.39,16.5c0,0.12-0.02,0.23-0.07,0.33c-0.05,0.11-0.14,0.22-0.28,0.34
			c-0.14,0.12-0.34,0.25-0.59,0.4c-0.26,0.15-0.59,0.32-1.01,0.52c-0.35,0.17-0.65,0.3-0.9,0.39s-0.46,0.15-0.62,0.18
			s-0.29,0.02-0.4-0.01c-0.1-0.03-0.18-0.09-0.23-0.17l-8.3-11.89l-0.03,0.02l3.47,14.12c0.02,0.1,0.02,0.21-0.02,0.32
			c-0.04,0.11-0.12,0.22-0.27,0.35C52,79.8,51.8,79.94,51.55,80.1c-0.25,0.15-0.59,0.33-1.02,0.53c-0.41,0.2-0.75,0.34-1.01,0.44
			c-0.26,0.09-0.47,0.15-0.63,0.17c-0.16,0.02-0.27,0-0.35-0.06c-0.07-0.05-0.12-0.13-0.14-0.24l-4-16.36
			c-0.12-0.47-0.08-0.89,0.1-1.26c0.18-0.37,0.49-0.66,0.91-0.86l2.79-1.33c0.44-0.21,0.83-0.35,1.18-0.43
			c0.35-0.08,0.67-0.08,0.96,0c0.29,0.08,0.57,0.24,0.83,0.49c0.27,0.25,0.53,0.58,0.8,1.01l5.94,8.17l0.05-0.02l1.24-11.69
			c0.02-0.54,0.08-1.01,0.16-1.4s0.22-0.75,0.41-1.05s0.44-0.58,0.76-0.83c0.32-0.24,0.72-0.48,1.21-0.71l2.84-1.36
			c0.44-0.21,0.8-0.24,1.1-0.1c0.3,0.14,0.5,0.45,0.6,0.93L70.29,70.49z"/>
		<path class="st2" d="M84.33,48.08c0.25,0.52,0.4,1.06,0.46,1.6c0.06,0.54,0.03,1.07-0.09,1.58c-0.12,0.51-0.31,1.01-0.58,1.48
			c-0.27,0.48-0.61,0.92-1.03,1.32c0.44-0.13,0.88-0.21,1.3-0.22c0.42-0.01,0.82,0.06,1.19,0.19s0.71,0.35,1.02,0.62
			s0.57,0.64,0.78,1.09c0.23,0.48,0.39,0.99,0.48,1.53c0.09,0.54,0.09,1.09,0.01,1.66s-0.26,1.15-0.53,1.73
			c-0.27,0.58-0.65,1.16-1.13,1.73c-0.48,0.57-1.09,1.13-1.82,1.66c-0.73,0.54-1.6,1.04-2.6,1.52l-5.75,2.74
			c-0.4,0.19-0.74,0.24-1.02,0.14c-0.28-0.1-0.46-0.37-0.55-0.82l-3.89-15.79c-0.12-0.43-0.1-0.8,0.09-1.12
			c0.18-0.32,0.46-0.57,0.83-0.74l5.39-2.57c0.93-0.44,1.78-0.77,2.57-0.98c0.79-0.21,1.49-0.3,2.12-0.25s1.17,0.23,1.63,0.54
			C83.67,47.05,84.04,47.5,84.33,48.08z M80.29,50.97c-0.21-0.43-0.53-0.68-0.98-0.75c-0.45-0.07-0.99,0.05-1.63,0.36l-2.53,1.21
			l1.09,4.35l2.45-1.17c0.5-0.24,0.89-0.53,1.18-0.87c0.28-0.34,0.48-0.7,0.59-1.06c0.11-0.37,0.14-0.73,0.1-1.09
			C80.51,51.58,80.43,51.26,80.29,50.97z M82.97,58.21c-0.12-0.24-0.27-0.44-0.45-0.59c-0.19-0.15-0.41-0.25-0.67-0.29
			c-0.26-0.04-0.56-0.03-0.91,0.04c-0.34,0.07-0.72,0.2-1.13,0.4l-2.86,1.36l1.15,4.67l2.96-1.41c0.54-0.26,0.98-0.56,1.31-0.89
			c0.33-0.34,0.57-0.69,0.71-1.07c0.15-0.37,0.21-0.75,0.18-1.14C83.22,58.91,83.13,58.55,82.97,58.21z"/>
		<path class="st2" d="M105.9,46.73c0.29,1.16,0.39,2.24,0.29,3.22c-0.09,0.98-0.38,1.92-0.85,2.81c-0.48,0.89-1.15,1.71-2,2.46
			c-0.86,0.75-1.91,1.42-3.15,2.01c-1.29,0.61-2.45,0.98-3.49,1.11c-1.04,0.12-1.96,0.02-2.76-0.3s-1.47-0.88-2.02-1.65
			s-0.99-1.83-1.32-3.16l-2.58-10.53c-0.02-0.1-0.01-0.21,0.04-0.32c0.05-0.11,0.15-0.23,0.3-0.36c0.15-0.13,0.36-0.27,0.62-0.43
			c0.26-0.16,0.6-0.33,1.01-0.53c0.4-0.19,0.74-0.34,1.02-0.44c0.28-0.1,0.51-0.16,0.68-0.19c0.17-0.03,0.31-0.02,0.39,0.02
			c0.09,0.04,0.14,0.12,0.17,0.22l2.6,10.65c0.35,1.44,0.89,2.34,1.61,2.7c0.72,0.36,1.6,0.29,2.65-0.21
			c0.57-0.27,1.04-0.59,1.43-0.97c0.39-0.38,0.69-0.81,0.9-1.29c0.21-0.48,0.33-1,0.37-1.56c0.03-0.56-0.04-1.2-0.23-1.92
			l-2.58-10.62c-0.02-0.1-0.01-0.21,0.04-0.32c0.05-0.11,0.14-0.22,0.28-0.35c0.14-0.13,0.35-0.27,0.62-0.43s0.61-0.34,1.03-0.54
			c0.4-0.19,0.74-0.34,1.02-0.44c0.28-0.1,0.5-0.16,0.66-0.18c0.16-0.02,0.28-0.01,0.36,0.04c0.08,0.05,0.13,0.12,0.15,0.23
			L105.9,46.73z"/>
		<path class="st2" d="M117.47,29.6c0.04,0.08,0.09,0.21,0.14,0.37c0.06,0.16,0.11,0.34,0.16,0.53s0.1,0.39,0.14,0.59
			c0.04,0.2,0.07,0.39,0.09,0.56s0.01,0.32-0.03,0.45c-0.03,0.13-0.09,0.21-0.18,0.25c-0.15,0.07-0.36,0.11-0.62,0.1
			c-0.26,0-0.57,0-0.93,0.01c-0.36,0.01-0.75,0.05-1.19,0.13c-0.44,0.08-0.91,0.24-1.41,0.48c-0.42,0.2-0.78,0.44-1.06,0.7
			c-0.28,0.26-0.49,0.54-0.63,0.83c-0.14,0.29-0.22,0.59-0.22,0.88c-0.01,0.29,0.05,0.57,0.18,0.83c0.14,0.28,0.34,0.49,0.62,0.61
			c0.28,0.12,0.6,0.21,0.97,0.26c0.37,0.05,0.78,0.07,1.24,0.07c0.45,0,0.92,0,1.4,0.02c0.48,0.02,0.96,0.06,1.44,0.12
			c0.48,0.07,0.94,0.19,1.38,0.38c0.44,0.19,0.85,0.45,1.23,0.79c0.38,0.34,0.7,0.79,0.96,1.35c0.43,0.9,0.63,1.81,0.6,2.73
			c-0.03,0.92-0.26,1.79-0.69,2.63s-1.04,1.62-1.83,2.35c-0.79,0.73-1.75,1.36-2.86,1.89c-0.63,0.3-1.24,0.54-1.82,0.7
			c-0.58,0.17-1.11,0.29-1.58,0.36s-0.88,0.1-1.23,0.09c-0.35-0.01-0.6-0.05-0.75-0.1c-0.15-0.05-0.27-0.12-0.35-0.21
			c-0.08-0.09-0.17-0.22-0.25-0.4c-0.04-0.08-0.09-0.21-0.14-0.37s-0.11-0.34-0.16-0.54c-0.05-0.2-0.1-0.4-0.14-0.61
			c-0.04-0.2-0.07-0.4-0.08-0.59s0-0.35,0.04-0.48c0.04-0.13,0.1-0.22,0.2-0.27c0.15-0.07,0.38-0.09,0.68-0.06
			c0.3,0.03,0.67,0.05,1.09,0.06c0.43,0.01,0.92-0.03,1.47-0.12s1.17-0.3,1.83-0.61c0.48-0.23,0.88-0.49,1.2-0.78
			c0.32-0.29,0.55-0.6,0.7-0.92s0.22-0.65,0.22-0.98c0-0.33-0.07-0.65-0.21-0.94c-0.18-0.38-0.48-0.62-0.9-0.74
			c-0.42-0.12-0.9-0.19-1.46-0.21c-0.56-0.02-1.15-0.04-1.78-0.04c-0.63,0-1.25-0.07-1.87-0.22c-0.62-0.14-1.19-0.4-1.73-0.77
			c-0.54-0.37-0.98-0.92-1.34-1.67c-0.41-0.85-0.6-1.7-0.57-2.57c0.02-0.86,0.23-1.69,0.62-2.48c0.39-0.79,0.96-1.53,1.71-2.22
			s1.64-1.28,2.67-1.78c0.43-0.21,0.88-0.39,1.34-0.53c0.46-0.15,0.89-0.26,1.31-0.33c0.42-0.07,0.79-0.11,1.12-0.11
			c0.33,0,0.58,0.02,0.74,0.07c0.16,0.05,0.27,0.12,0.33,0.2C117.37,29.4,117.42,29.49,117.47,29.6z"/>
	</g>
	<g>
		<path class="st2" d="M94.83,113.46c0.04,0.07,0.09,0.19,0.15,0.36c0.06,0.17,0.12,0.36,0.17,0.57s0.1,0.43,0.14,0.65
			c0.04,0.23,0.06,0.44,0.06,0.64c0,0.2-0.02,0.38-0.07,0.53s-0.14,0.26-0.28,0.33l-11.66,5.76c-0.21,0.1-0.39,0.17-0.54,0.21
			c-0.15,0.04-0.29,0.04-0.41,0.01c-0.12-0.03-0.22-0.09-0.3-0.18c-0.08-0.09-0.16-0.21-0.23-0.35c-0.08-0.16-0.17-0.37-0.26-0.65
			c-0.1-0.28-0.18-0.6-0.24-0.96c-0.06-0.36-0.08-0.76-0.05-1.18s0.13-0.85,0.31-1.29l2.72-6.53c0.35-0.87,0.63-1.67,0.86-2.39
			c0.22-0.72,0.39-1.37,0.51-1.94c0.12-0.58,0.19-1.1,0.21-1.56c0.02-0.47,0.02-0.88-0.02-1.24c-0.03-0.36-0.1-0.67-0.19-0.95
			c-0.09-0.27-0.18-0.51-0.28-0.71c-0.1-0.2-0.23-0.39-0.4-0.58c-0.17-0.19-0.38-0.33-0.63-0.44c-0.25-0.1-0.54-0.15-0.87-0.13
			c-0.34,0.02-0.72,0.13-1.15,0.34c-0.55,0.27-1.04,0.62-1.46,1.02s-0.79,0.81-1.1,1.2c-0.31,0.39-0.57,0.74-0.78,1.05
			c-0.21,0.3-0.37,0.49-0.5,0.55c-0.14,0.07-0.26,0.05-0.38-0.04c-0.12-0.1-0.23-0.25-0.34-0.47c-0.04-0.08-0.09-0.2-0.15-0.35
			c-0.06-0.15-0.12-0.32-0.18-0.51c-0.06-0.19-0.12-0.39-0.16-0.61c-0.05-0.22-0.09-0.43-0.13-0.64s-0.05-0.41-0.05-0.6
			c0-0.19,0.03-0.36,0.09-0.52c0.06-0.19,0.23-0.47,0.5-0.85c0.27-0.38,0.62-0.79,1.05-1.23c0.43-0.44,0.92-0.88,1.49-1.32
			c0.57-0.44,1.18-0.83,1.84-1.15c1.1-0.54,2.08-0.86,2.95-0.94c0.87-0.08,1.62-0.02,2.26,0.2c0.64,0.22,1.18,0.55,1.62,0.99
			c0.44,0.44,0.78,0.91,1.03,1.41c0.23,0.46,0.42,0.94,0.57,1.44c0.15,0.5,0.25,1.05,0.3,1.64c0.05,0.59,0.04,1.24-0.04,1.95
			c-0.08,0.71-0.23,1.5-0.45,2.38c-0.22,0.88-0.53,1.86-0.93,2.93c-0.4,1.07-0.9,2.27-1.51,3.59l-1.69,3.85l7.73-3.82
			c0.19-0.09,0.36-0.08,0.51,0.04S94.73,113.25,94.83,113.46z"/>
		<path class="st2" d="M107.67,92.29c0.26,0.53,0.53,1.16,0.81,1.88s0.54,1.51,0.79,2.36c0.24,0.85,0.46,1.74,0.65,2.65
			s0.32,1.83,0.39,2.75c0.08,0.92,0.08,1.81,0.02,2.68c-0.06,0.87-0.22,1.68-0.47,2.41c-0.33,0.96-0.86,1.85-1.58,2.69
			c-0.72,0.83-1.71,1.57-2.99,2.2c-1.04,0.52-2,0.81-2.87,0.89c-0.87,0.08-1.66-0.03-2.38-0.33c-0.72-0.3-1.37-0.78-1.96-1.43
			c-0.58-0.66-1.11-1.46-1.59-2.42c-0.25-0.51-0.52-1.13-0.8-1.85s-0.54-1.51-0.78-2.35s-0.46-1.73-0.64-2.65
			c-0.19-0.92-0.32-1.84-0.39-2.75c-0.07-0.92-0.08-1.81-0.02-2.68c0.06-0.87,0.21-1.68,0.47-2.43c0.16-0.47,0.37-0.93,0.62-1.39
			c0.26-0.46,0.57-0.89,0.95-1.3c0.37-0.41,0.81-0.8,1.3-1.17c0.49-0.37,1.05-0.71,1.68-1.02c1.08-0.53,2.05-0.83,2.94-0.91
			s1.68,0.05,2.39,0.36s1.35,0.79,1.91,1.45S107.21,91.36,107.67,92.29z M103.61,94.37c-0.5-1.01-1.04-1.67-1.61-1.96
			c-0.58-0.3-1.26-0.25-2.06,0.14c-0.44,0.22-0.79,0.49-1.06,0.81c-0.27,0.33-0.47,0.7-0.62,1.11c-0.16,0.49-0.24,1.09-0.23,1.79
			c0.01,0.7,0.07,1.44,0.19,2.23c0.12,0.79,0.28,1.59,0.49,2.41s0.43,1.59,0.65,2.33s0.45,1.4,0.67,1.98
			c0.22,0.59,0.4,1.03,0.56,1.35c0.49,1,1.03,1.65,1.61,1.94c0.58,0.3,1.26,0.25,2.05-0.14c0.44-0.22,0.8-0.49,1.07-0.81
			s0.48-0.69,0.62-1.09c0.16-0.48,0.24-1.08,0.23-1.78s-0.07-1.45-0.19-2.23c-0.12-0.79-0.27-1.59-0.48-2.41
			c-0.2-0.82-0.42-1.6-0.65-2.33s-0.45-1.4-0.68-1.98C103.96,95.15,103.77,94.7,103.61,94.37z"/>
		<path class="st2" d="M127.37,97.39c0.04,0.07,0.09,0.19,0.15,0.36c0.06,0.17,0.12,0.36,0.17,0.57s0.1,0.43,0.14,0.65
			c0.04,0.23,0.06,0.44,0.06,0.64c0,0.2-0.02,0.38-0.07,0.53s-0.14,0.26-0.28,0.33l-11.66,5.76c-0.21,0.1-0.39,0.17-0.54,0.21
			c-0.15,0.04-0.29,0.04-0.41,0.01c-0.12-0.03-0.22-0.09-0.3-0.18c-0.08-0.09-0.16-0.21-0.23-0.35c-0.08-0.16-0.17-0.37-0.26-0.65
			c-0.1-0.28-0.18-0.6-0.24-0.96c-0.06-0.36-0.08-0.76-0.05-1.18s0.13-0.85,0.31-1.29l2.72-6.53c0.35-0.87,0.63-1.67,0.86-2.39
			c0.22-0.72,0.39-1.37,0.51-1.94c0.12-0.58,0.19-1.1,0.21-1.56c0.02-0.47,0.02-0.88-0.02-1.24c-0.04-0.36-0.1-0.67-0.19-0.95
			c-0.09-0.27-0.18-0.51-0.28-0.71c-0.1-0.2-0.23-0.39-0.4-0.58s-0.38-0.33-0.63-0.44c-0.25-0.1-0.54-0.15-0.87-0.13
			c-0.34,0.02-0.72,0.13-1.15,0.34c-0.55,0.27-1.04,0.62-1.46,1.02s-0.79,0.81-1.1,1.2c-0.31,0.39-0.57,0.74-0.78,1.05
			c-0.21,0.3-0.37,0.49-0.5,0.55c-0.14,0.07-0.26,0.05-0.38-0.04s-0.23-0.25-0.34-0.47c-0.04-0.08-0.09-0.2-0.15-0.35
			c-0.06-0.15-0.12-0.32-0.18-0.51c-0.06-0.19-0.12-0.39-0.16-0.61s-0.09-0.43-0.13-0.64c-0.04-0.21-0.05-0.41-0.05-0.6
			c0-0.19,0.03-0.36,0.09-0.52c0.06-0.19,0.23-0.47,0.5-0.85c0.27-0.38,0.62-0.79,1.05-1.23c0.43-0.44,0.92-0.88,1.49-1.32
			c0.57-0.44,1.18-0.83,1.84-1.15c1.1-0.54,2.08-0.86,2.95-0.94c0.87-0.08,1.62-0.02,2.26,0.2c0.64,0.22,1.18,0.55,1.62,0.99
			c0.44,0.44,0.78,0.91,1.03,1.41c0.23,0.46,0.42,0.94,0.57,1.44c0.15,0.5,0.25,1.05,0.3,1.64c0.05,0.59,0.04,1.24-0.04,1.95
			c-0.08,0.71-0.23,1.5-0.45,2.38c-0.22,0.88-0.53,1.86-0.93,2.93c-0.4,1.07-0.9,2.27-1.51,3.59l-1.69,3.85l7.73-3.82
			c0.19-0.09,0.36-0.08,0.51,0.04C127.14,97.01,127.27,97.18,127.37,97.39z"/>
		<path class="st2" d="M140.21,76.22c0.26,0.53,0.53,1.16,0.81,1.88c0.28,0.72,0.54,1.51,0.79,2.36c0.25,0.85,0.46,1.74,0.65,2.65
			c0.19,0.92,0.32,1.83,0.39,2.75c0.07,0.92,0.08,1.81,0.02,2.68s-0.22,1.68-0.47,2.41c-0.33,0.96-0.86,1.85-1.58,2.69
			c-0.72,0.83-1.71,1.57-2.99,2.2c-1.04,0.52-2,0.81-2.87,0.89c-0.87,0.08-1.66-0.03-2.38-0.33c-0.72-0.3-1.37-0.78-1.96-1.43
			c-0.58-0.66-1.11-1.46-1.59-2.42c-0.25-0.51-0.52-1.13-0.8-1.85s-0.54-1.51-0.78-2.35c-0.24-0.85-0.46-1.73-0.64-2.65
			c-0.19-0.92-0.32-1.84-0.39-2.75c-0.07-0.92-0.08-1.81-0.02-2.68c0.06-0.87,0.21-1.68,0.47-2.43c0.16-0.47,0.37-0.93,0.62-1.39
			c0.25-0.46,0.57-0.89,0.95-1.3s0.81-0.8,1.3-1.17s1.06-0.71,1.68-1.02c1.08-0.53,2.05-0.83,2.93-0.91
			c0.88-0.07,1.68,0.05,2.39,0.36c0.71,0.31,1.35,0.79,1.91,1.45C139.24,74.5,139.75,75.29,140.21,76.22z M136.15,78.3
			c-0.5-1.01-1.04-1.67-1.61-1.96s-1.26-0.25-2.06,0.14c-0.44,0.22-0.79,0.49-1.06,0.82c-0.27,0.33-0.48,0.69-0.62,1.1
			c-0.16,0.49-0.24,1.09-0.23,1.79c0.01,0.7,0.07,1.44,0.19,2.23c0.12,0.79,0.28,1.59,0.49,2.41c0.21,0.82,0.43,1.59,0.65,2.33
			s0.45,1.4,0.67,1.98s0.4,1.03,0.56,1.35c0.49,1,1.03,1.65,1.61,1.94c0.58,0.3,1.26,0.25,2.05-0.14c0.44-0.22,0.8-0.49,1.07-0.81
			c0.28-0.32,0.48-0.69,0.62-1.09c0.17-0.48,0.24-1.08,0.23-1.78c-0.01-0.7-0.07-1.45-0.19-2.23c-0.12-0.79-0.27-1.59-0.48-2.41
			c-0.2-0.82-0.42-1.6-0.65-2.33c-0.23-0.74-0.45-1.4-0.68-1.98C136.5,79.08,136.3,78.62,136.15,78.3z"/>
	</g>
</g>
<g id="Layer_4" class="st0">
	<path class="st6" d="M135.36,51.49c-0.88-0.08-1.72,0.16-2.55,0.4c-2.62,0.76-5.17,1.71-7.69,2.74
		c-5.51,2.27-10.77,5.09-16.15,7.64c-1.74,0.82-3.42,1.77-5.19,2.51c-4.22,1.76-7.61,4.53-10.4,8.11c-2.56,3.28-5.72,5.77-9.58,7.47
		c-4.95,2.19-9.77,4.65-14.65,7c-0.6,0.29-1.18,0.72-1.72-0.1c-0.13-0.2-0.4-0.11-0.63-0.11c-0.89-0.02-1.62,0.38-2.27,0.91
		c-0.35,0.29-0.74,0.4-1.13,0.57c-1.06,0.47-2.18,0.77-3.23,1.23c-0.49,0.21-0.96,0.5-1.48,0.65c-3.6,1.04-7.27,1.82-10.82,3.04
		c-3.06,1.05-6.16,2.03-9.04,3.5c-3.92,1.99-7.32,4.68-10.06,8.15c-1.47,1.86-3.04,3.63-5,5c-0.6,0.42-0.66,0.77-0.15,1.36
		c0.63,0.71,1.38,0.6,2.12,0.49c2.03-0.28,4.05-0.6,6.11-0.67c1.21-0.04,2.45-0.05,3.63-0.28c5.22-1.04,9.92-3.24,14.38-6.14
		c5.52-3.59,10.09-8.47,15.96-11.57c0.18-0.09,0.32-0.16,0.43-0.18c0.27-0.06,0.54-0.14,0.78-0.29c0.37-0.23,0.77-0.43,1.15-0.64
		c0.04-0.02,0.08-0.04,0.12-0.06c0.49-0.27,0.83-0.73,1.01-1.25c0.15-0.44,0.49-0.82,0.99-1.05c4.19-2,8.4-3.96,12.58-5.99
		c3.39-1.64,6.99-2.97,9.66-5.79c1.52-1.6,3.01-3.23,4.41-4.94c1.91-2.33,4.29-4,6.98-5.29c6.5-3.11,13-6.22,19.49-9.35
		c1.85-0.89,3.78-1.34,5.84-1.35c1.29,0,2.56,0.13,3.84,0.18c1.59,0.07,2.33-0.41,2.8-1.89c0.27-0.85,0.47-1.73,0.61-2.61
		C136.65,52,136.26,51.58,135.36,51.49z"/>
	<path id="SVGID_x5F_5_x5F_" class="st4" d="M13.66,98.11l115.4-55.08"/>
	<text class="st1">	<textPath  xlink:href="#SVGID_x5F_5_x5F_" startOffset="0.098%">
<tspan  style="fill:#FFFFFF; font-family:'Calibri-BoldItalic'; font-size:35.691px;">Nimbus</tspan>	</textPath>
</text>
	<path id="SVGID_x5F_6_x5F_" class="st4" d="M65.41,131.17l85.13-42.06"/>
	<text class="st1">	<textPath  xlink:href="#SVGID_x5F_6_x5F_" startOffset="25.098%">
<tspan  style="fill:#FFFFFF; font-family:'Calibri-BoldItalic'; font-size:35.691px;">2020</tspan>	</textPath>
</text>
</g>
<g id="Layer_5" class="st0">
	<path class="st1" d="M135.36,51.49c-0.88-0.08-1.72,0.16-2.55,0.4c-2.62,0.76-5.17,1.71-7.69,2.74
		c-5.51,2.27-10.77,5.09-16.15,7.64c-1.74,0.82-3.42,1.77-5.19,2.51c-4.22,1.76-7.61,4.53-10.4,8.11c-2.56,3.28-5.72,5.77-9.58,7.47
		c-4.95,2.19-9.77,4.65-14.65,7c-0.6,0.29-1.18,0.72-1.72-0.1c-0.13-0.2-0.4-0.11-0.63-0.11c-0.89-0.02-1.62,0.38-2.27,0.91
		c-0.35,0.29-0.74,0.4-1.13,0.57c-1.06,0.47-2.18,0.77-3.23,1.23c-0.49,0.21-0.96,0.5-1.48,0.65c-3.6,1.04-7.27,1.82-10.82,3.04
		c-3.06,1.05-6.16,2.03-9.04,3.5c-3.92,1.99-7.32,4.68-10.06,8.15c-1.47,1.86-3.04,3.63-5,5c-0.6,0.42-0.66,0.77-0.15,1.36
		c0.63,0.71,1.38,0.6,2.12,0.49c2.03-0.28,4.05-0.6,6.11-0.67c1.21-0.04,2.45-0.05,3.63-0.28c5.22-1.04,9.92-3.24,14.38-6.14
		c5.52-3.59,10.09-8.47,15.96-11.57c0.18-0.09,0.32-0.16,0.43-0.18c0.27-0.06,0.54-0.14,0.78-0.29c0.37-0.23,0.77-0.43,1.15-0.64
		c0.04-0.02,0.08-0.04,0.12-0.06c0.49-0.27,0.83-0.73,1.01-1.25c0.15-0.44,0.49-0.82,0.99-1.05c4.19-2,8.4-3.96,12.58-5.99
		c3.39-1.64,6.99-2.97,9.66-5.79c1.52-1.6,3.01-3.23,4.41-4.94c1.91-2.33,4.29-4,6.98-5.29c6.5-3.11,13-6.22,19.49-9.35
		c1.85-0.89,3.78-1.34,5.84-1.35c1.29,0,2.56,0.13,3.84,0.18c1.59,0.07,2.33-0.41,2.8-1.89c0.27-0.85,0.47-1.73,0.61-2.61
		C136.65,52,136.26,51.58,135.36,51.49z"/>
	<path id="SVGID_x5F_7_x5F_" class="st4" d="M13.66,98.11l115.4-55.08"/>
	<text class="st1">	<textPath  xlink:href="#SVGID_x5F_7_x5F_" startOffset="0.098%">
<tspan  style="font-family:'Calibri-BoldItalic'; font-size:35.691px;">Nimbus</tspan>	</textPath>
</text>
	<path id="SVGID_x5F_8_x5F_" class="st4" d="M65.41,131.17l85.13-42.06"/>
	<text class="st1">	<textPath  xlink:href="#SVGID_x5F_8_x5F_" startOffset="25.098%">
<tspan  style="font-family:'Calibri-BoldItalic'; font-size:35.691px;">2020</tspan>	</textPath>
</text>
</g>
</svg>
